<?xml version="1.0" encoding="UTF-8" standalone="no"?>
<svg
   width="128"
   height="128"
   version="1.1"
   id="svg984"
   sodipodi:docname="eco_dome_2.svg"
   inkscape:version="1.2.2 (b0a8486541, 2022-12-01)"
   xmlns:inkscape="http://www.inkscape.org/namespaces/inkscape"
   xmlns:sodipodi="http://sodipodi.sourceforge.net/DTD/sodipodi-0.dtd"
   xmlns="http://www.w3.org/2000/svg"
   xmlns:svg="http://www.w3.org/2000/svg">
  <defs
     id="defs988" />
  <sodipodi:namedview
     id="namedview986"
     pagecolor="#ffffff"
     bordercolor="#000000"
     borderopacity="0.25"
     inkscape:showpageshadow="2"
     inkscape:pageopacity="0.0"
     inkscape:pagecheckerboard="0"
     inkscape:deskcolor="#d1d1d1"
     showgrid="false"
     inkscape:zoom="2.49"
     inkscape:cx="63.855422"
     inkscape:cy="94.97992"
     inkscape:window-width="1854"
     inkscape:window-height="1011"
     inkscape:window-x="66"
     inkscape:window-y="32"
     inkscape:window-maximized="1"
     inkscape:current-layer="svg984" />
  <rect
     width="124"
     height="124"
     x="2"
     y="2"
     fill="#363d52"
     stroke="#212532"
     stroke-width="4"
     rx="14"
     id="rect964"
     style="stroke:#008000" />
  <path
     d="m 22.927,80.295 v 3.333 q 41.107,35.754 82.214,0 v -3.333 z"
     id="path966"
     style="fill:#ffffff;stroke-width:0.101;stroke:#008000" />
  <path
     fill="#478cbf"
     d="m 22.927,80.295 15.352,1.414 q 1.212,0.101 1.515,1.414 l 0.404,6.767 13.332,1.01 0.808,-6.161 q 0.202,-1.111 1.515,-1.515 h 16.362 q 1.313,0.404 1.515,1.515 l 0.808,6.161 13.332,-1.01 0.404,-6.767 q 0.303,-1.313 1.515,-1.414 l 15.352,-1.414 V 55.449 q 3.03,-3.939 5.656,-8.181 -3.535,-5.959 -8.383,-10.908 -4.343,2.02 -8.282,4.747 -4.04,-3.737 -8.888,-6.464 0.707,-5.151 0.808,-10.302 -5.959,-2.828 -12.423,-4.242 -2.626,4.343 -4.646,8.989 -4.949,-0.707 -9.898,0 -2.02,-4.646 -4.646,-8.989 -6.464,1.414 -12.423,4.242 0.101,5.151 0.808,10.302 -4.848,2.727 -8.888,6.464 -3.939,-2.727 -8.282,-4.747 -4.848,4.949 -8.383,10.908 2.626,4.242 5.656,8.181 z m 0,3.333 v 3.939 c 0,27.876 82.113,27.876 82.214,0 v -3.939 l -13.534,1.212 -0.505,6.969 q -0.202,1.01 -1.414,1.313 l -16.362,1.111 q -1.212,0 -1.616,-1.111 L 70.7,86.557 H 57.368 l -1.01,6.565 q -0.404,1.111 -1.616,1.111 L 38.38,93.122 Q 37.168,92.819 36.966,91.809 L 36.461,84.84 Z"
     id="path968"
     style="stroke-width:0.101;stroke:#008000" />
  <path
     d="m 61.105,72.922 c 0,3.434 5.858,3.434 5.858,0 v -8.686 c 0,-3.434 -5.858,-3.434 -5.858,0 z"
     id="path970"
     style="fill:#ffffff;stroke-width:0.101;stroke:#008000" />
  <circle
     cx="85.546997"
     cy="65.447998"
     r="9.0900002"
     id="circle972"
     style="fill:#ffffff;stroke-width:0.101;stroke:#008000" />
  <circle
     cx="42.521"
     cy="65.447998"
     r="9.0900002"
     id="circle974"
     style="fill:#ffffff;stroke-width:0.101;stroke:#008000" />
  <circle
     cx="43.328999"
     cy="66.054001"
     r="6.0599999"
     id="circle978"
     style="fill:#414042;stroke-width:0.101;stroke:#008000" />
  <circle
     cx="84.738998"
     cy="66.054001"
     r="6.0599999"
     id="circle980"
     style="fill:#414042;stroke-width:0.101;stroke:#008000" />
  <g
     aria-label="2"
     transform="scale(1.0837835,0.92269352)"
     id="text693"
     style="font-size:30.9716px;fill:#ff0000;fill-opacity:0;stroke:#ff0000;stroke-width:2.58097">
    <path
       d="M 24.022209,33.546661 H 9.4036137 v -2.260926 l 5.7916893,-5.853633 q 1.672466,-1.672466 2.818415,-2.973273 1.14595,-1.300807 1.73441,-2.539671 0.58846,-1.269836 0.58846,-2.756473 0,-1.827324 -1.084006,-2.756472 -1.084006,-0.96012 -2.818415,-0.96012 -1.610523,0 -2.849387,0.557489 -1.207893,0.557489 -2.477728,1.54858 L 9.6513865,13.724838 q 1.3008075,-1.084006 2.9732735,-1.827325 1.703438,-0.77429 3.809507,-0.77429 3.09716,0 4.893513,1.579552 1.796352,1.54858 1.796352,4.305052 0,1.73441 -0.712346,3.252018 -0.712347,1.517609 -1.982183,3.004245 -1.269835,1.455665 -2.973273,3.128132 l -4.614769,4.552825 v 0.123886 h 11.180748 z"
       id="path708" />
  </g>
</svg>
