<?xml version="1.0" encoding="UTF-8" standalone="no"?>
<svg
   width="128"
   height="128"
   version="1.1"
   id="svg80"
   sodipodi:docname="mech_quarter_2.svg"
   inkscape:version="1.2.2 (b0a8486541, 2022-12-01)"
   xmlns:inkscape="http://www.inkscape.org/namespaces/inkscape"
   xmlns:sodipodi="http://sodipodi.sourceforge.net/DTD/sodipodi-0.dtd"
   xmlns="http://www.w3.org/2000/svg"
   xmlns:svg="http://www.w3.org/2000/svg">
  <defs
     id="defs84" />
  <sodipodi:namedview
     id="namedview82"
     pagecolor="#ffffff"
     bordercolor="#000000"
     borderopacity="0.25"
     inkscape:showpageshadow="2"
     inkscape:pageopacity="0.0"
     inkscape:pagecheckerboard="0"
     inkscape:deskcolor="#d1d1d1"
     showgrid="false"
     inkscape:zoom="6.578125"
     inkscape:cx="48.7981"
     inkscape:cy="59.515439"
     inkscape:window-width="1854"
     inkscape:window-height="1011"
     inkscape:window-x="66"
     inkscape:window-y="32"
     inkscape:window-maximized="1"
     inkscape:current-layer="svg80" />
  <rect
     width="124"
     height="124"
     x="2"
     y="2"
     fill="#363d52"
     stroke="#212532"
     stroke-width="4"
     rx="14"
     id="rect60"
     style="stroke:#ffff00" />
  <path
     d="m 22.927,80.295 v 3.333 q 41.107,35.754 82.214,0 v -3.333 z"
     id="path62"
     style="fill:#ffffff;stroke-width:0.101;stroke:#ffff00" />
  <path
     fill="#478cbf"
     d="m 22.927,80.295 15.352,1.414 q 1.212,0.101 1.515,1.414 l 0.404,6.767 13.332,1.01 0.808,-6.161 q 0.202,-1.111 1.515,-1.515 h 16.362 q 1.313,0.404 1.515,1.515 l 0.808,6.161 13.332,-1.01 0.404,-6.767 q 0.303,-1.313 1.515,-1.414 l 15.352,-1.414 V 55.449 q 3.03,-3.939 5.656,-8.181 -3.535,-5.959 -8.383,-10.908 -4.343,2.02 -8.282,4.747 -4.04,-3.737 -8.888,-6.464 0.707,-5.151 0.808,-10.302 -5.959,-2.828 -12.423,-4.242 -2.626,4.343 -4.646,8.989 -4.949,-0.707 -9.898,0 -2.02,-4.646 -4.646,-8.989 -6.464,1.414 -12.423,4.242 0.101,5.151 0.808,10.302 -4.848,2.727 -8.888,6.464 -3.939,-2.727 -8.282,-4.747 -4.848,4.949 -8.383,10.908 2.626,4.242 5.656,8.181 z m 0,3.333 v 3.939 c 0,27.876 82.113,27.876 82.214,0 v -3.939 l -13.534,1.212 -0.505,6.969 q -0.202,1.01 -1.414,1.313 l -16.362,1.111 q -1.212,0 -1.616,-1.111 L 70.7,86.557 H 57.368 l -1.01,6.565 q -0.404,1.111 -1.616,1.111 L 38.38,93.122 Q 37.168,92.819 36.966,91.809 L 36.461,84.84 Z"
     id="path64"
     style="stroke-width:0.101;stroke:#ffff00" />
  <path
     d="m 61.105,72.922 c 0,3.434 5.858,3.434 5.858,0 v -8.686 c 0,-3.434 -5.858,-3.434 -5.858,0 z"
     id="path66"
     style="fill:#ffffff;stroke-width:0.101;stroke:#ffff00" />
  <circle
     cx="85.546997"
     cy="65.447998"
     r="9.0900002"
     id="circle68"
     style="fill:#ffffff;stroke-width:0.101;stroke:#ffff00" />
  <circle
     cx="42.521"
     cy="65.447998"
     r="9.0900002"
     id="circle70"
     style="fill:#ffffff;stroke-width:0.101;stroke:#ffff00" />
  <circle
     cx="43.328999"
     cy="66.054001"
     r="6.0599999"
     id="circle74"
     style="fill:#414042;stroke-width:0.101;stroke:#ffff00" />
  <circle
     cx="84.738998"
     cy="66.054001"
     r="6.0599999"
     id="circle76"
     style="fill:#414042;stroke-width:0.101;stroke:#ffff00" />
  <g
     aria-label="2"
     transform="scale(1.0939695,0.91410227)"
     id="text2446"
     style="font-size:25.9412px;fill:#ff0000;fill-opacity:0;stroke:#ff0000;stroke-width:2.16176">
    <path
       d="M 21.88278,30.040871 H 9.638533 v -1.893708 l 4.851004,-4.902887 q 1.400825,-1.400825 2.36065,-2.490355 0.959824,-1.08953 1.452707,-2.127178 0.492883,-1.06359 0.492883,-2.308767 0,-1.530531 -0.907942,-2.308767 -0.907942,-0.804177 -2.36065,-0.804177 -1.348942,0 -2.38659,0.466941 -1.011707,0.466942 -2.075296,1.29706 l -1.2192364,-1.53053 q 1.0895304,-0.907943 2.4903554,-1.530531 1.426766,-0.64853 3.190767,-0.64853 2.59412,0 4.09871,1.323001 1.50459,1.29706 1.50459,3.605827 0,1.452707 -0.596648,2.723826 -0.596648,1.271119 -1.660237,2.516296 -1.063589,1.219237 -2.490355,2.620061 l -3.865239,3.813357 v 0.103765 h 9.364774 z"
       id="path2474" />
  </g>
</svg>
