<?xml version="1.0" encoding="UTF-8" standalone="no"?>
<svg
   width="128"
   height="128"
   version="1.1"
   id="svg1125"
   sodipodi:docname="power_plant_2.svg"
   inkscape:version="1.2.2 (b0a8486541, 2022-12-01)"
   xmlns:inkscape="http://www.inkscape.org/namespaces/inkscape"
   xmlns:sodipodi="http://sodipodi.sourceforge.net/DTD/sodipodi-0.dtd"
   xmlns="http://www.w3.org/2000/svg"
   xmlns:svg="http://www.w3.org/2000/svg">
  <defs
     id="defs1129" />
  <sodipodi:namedview
     id="namedview1127"
     pagecolor="#ffffff"
     bordercolor="#000000"
     borderopacity="0.25"
     inkscape:showpageshadow="2"
     inkscape:pageopacity="0.0"
     inkscape:pagecheckerboard="0"
     inkscape:deskcolor="#d1d1d1"
     showgrid="false"
     inkscape:zoom="5.7288226"
     inkscape:cx="64.062029"
     inkscape:cy="59.959965"
     inkscape:window-width="1854"
     inkscape:window-height="1011"
     inkscape:window-x="66"
     inkscape:window-y="32"
     inkscape:window-maximized="1"
     inkscape:current-layer="svg1125" />
  <rect
     width="124"
     height="124"
     x="2"
     y="2"
     fill="#363d52"
     stroke="#212532"
     stroke-width="4"
     rx="14"
     id="rect1105"
     style="stroke:#0000ff" />
  <path
     d="m 22.927,80.295 v 3.333 q 41.107,35.754 82.214,0 v -3.333 z"
     id="path1107"
     style="fill:#ffffff;stroke-width:0.101;stroke:#0000ff" />
  <path
     fill="#478cbf"
     d="m 22.927,80.295 15.352,1.414 q 1.212,0.101 1.515,1.414 l 0.404,6.767 13.332,1.01 0.808,-6.161 q 0.202,-1.111 1.515,-1.515 h 16.362 q 1.313,0.404 1.515,1.515 l 0.808,6.161 13.332,-1.01 0.404,-6.767 q 0.303,-1.313 1.515,-1.414 l 15.352,-1.414 V 55.449 q 3.03,-3.939 5.656,-8.181 -3.535,-5.959 -8.383,-10.908 -4.343,2.02 -8.282,4.747 -4.04,-3.737 -8.888,-6.464 0.707,-5.151 0.808,-10.302 -5.959,-2.828 -12.423,-4.242 -2.626,4.343 -4.646,8.989 -4.949,-0.707 -9.898,0 -2.02,-4.646 -4.646,-8.989 -6.464,1.414 -12.423,4.242 0.101,5.151 0.808,10.302 -4.848,2.727 -8.888,6.464 -3.939,-2.727 -8.282,-4.747 -4.848,4.949 -8.383,10.908 2.626,4.242 5.656,8.181 z m 0,3.333 v 3.939 c 0,27.876 82.113,27.876 82.214,0 v -3.939 l -13.534,1.212 -0.505,6.969 q -0.202,1.01 -1.414,1.313 l -16.362,1.111 q -1.212,0 -1.616,-1.111 L 70.7,86.557 H 57.368 l -1.01,6.565 q -0.404,1.111 -1.616,1.111 L 38.38,93.122 Q 37.168,92.819 36.966,91.809 L 36.461,84.84 Z"
     id="path1109"
     style="stroke-width:0.101;stroke:#0000ff" />
  <path
     d="m 61.105,72.922 c 0,3.434 5.858,3.434 5.858,0 v -8.686 c 0,-3.434 -5.858,-3.434 -5.858,0 z"
     id="path1111"
     style="fill:#ffffff;stroke-width:0.101;stroke:#0000ff" />
  <circle
     cx="85.546997"
     cy="65.447998"
     r="9.0900002"
     id="circle1113"
     style="fill:#ffffff;stroke-width:0.101;stroke:#0000ff" />
  <circle
     cx="42.521"
     cy="65.447998"
     r="9.0900002"
     id="circle1115"
     style="fill:#ffffff;stroke-width:0.101;stroke:#0000ff" />
  <circle
     cx="43.328999"
     cy="66.054001"
     r="6.0599999"
     id="circle1119"
     style="fill:#414042;stroke-width:0.101;stroke:#0000ff" />
  <circle
     cx="84.738998"
     cy="66.054001"
     r="6.0599999"
     id="circle1121"
     style="fill:#414042;stroke-width:0.101;stroke:#0000ff" />
  <g
     aria-label="2"
     transform="scale(1.0889556,0.91831107)"
     id="text1091"
     style="font-size:24.6024px;fill:#ff0000;fill-opacity:0;stroke:#ff0000;stroke-width:2.0502">
    <path
       d="M 22.072837,26.417158 H 10.460504 v -1.795975 l 4.600649,-4.649854 q 1.328529,-1.328529 2.238818,-2.36183 0.910289,-1.033301 1.377734,-2.017397 0.467446,-1.008698 0.467446,-2.189613 0,-1.451542 -0.861084,-2.189614 -0.861084,-0.762674 -2.238818,-0.762674 -1.279325,0 -2.263421,0.442843 -0.959494,0.442843 -1.968192,1.23012 l -1.156313,-1.451542 q 1.033301,-0.8610838 2.36183,-1.4515414 1.353132,-0.6150599 3.026096,-0.6150599 2.46024,0 3.887179,1.2547223 1.426939,1.23012 1.426939,3.419734 0,1.377734 -0.565855,2.583252 -0.565855,1.205517 -1.574554,2.386432 -1.008698,1.156313 -2.36183,2.484843 l -3.665758,3.616553 v 0.09841 h 8.881467 z"
       id="path1143" />
  </g>
</svg>
