<?xml version="1.0" encoding="UTF-8" standalone="no"?>
<svg
   width="128"
   height="128"
   version="1.1"
   id="svg662"
   sodipodi:docname="residence_building_2.svg"
   inkscape:version="1.2.2 (b0a8486541, 2022-12-01)"
   xmlns:inkscape="http://www.inkscape.org/namespaces/inkscape"
   xmlns:sodipodi="http://sodipodi.sourceforge.net/DTD/sodipodi-0.dtd"
   xmlns="http://www.w3.org/2000/svg"
   xmlns:svg="http://www.w3.org/2000/svg">
  <defs
     id="defs666" />
  <sodipodi:namedview
     id="namedview664"
     pagecolor="#ffffff"
     bordercolor="#000000"
     borderopacity="0.25"
     inkscape:showpageshadow="2"
     inkscape:pageopacity="0.0"
     inkscape:pagecheckerboard="0"
     inkscape:deskcolor="#d1d1d1"
     showgrid="false"
     inkscape:zoom="5.5036571"
     inkscape:cx="62.503894"
     inkscape:cy="64.048322"
     inkscape:window-width="1854"
     inkscape:window-height="1011"
     inkscape:window-x="66"
     inkscape:window-y="32"
     inkscape:window-maximized="1"
     inkscape:current-layer="svg662" />
  <rect
     width="124"
     height="124"
     x="2"
     y="2"
     fill="#363d52"
     stroke="#212532"
     stroke-width="4"
     rx="14"
     id="rect642"
     style="stroke:#241c1c" />
  <path
     d="m 22.927,80.295 v 3.333 q 41.107,35.754 82.214,0 v -3.333 z"
     id="path644"
     style="fill:#ffffff;stroke-width:0.101;stroke:#241c1c" />
  <path
     fill="#478cbf"
     d="m 22.927,80.295 15.352,1.414 q 1.212,0.101 1.515,1.414 l 0.404,6.767 13.332,1.01 0.808,-6.161 q 0.202,-1.111 1.515,-1.515 h 16.362 q 1.313,0.404 1.515,1.515 l 0.808,6.161 13.332,-1.01 0.404,-6.767 q 0.303,-1.313 1.515,-1.414 l 15.352,-1.414 V 55.449 q 3.03,-3.939 5.656,-8.181 -3.535,-5.959 -8.383,-10.908 -4.343,2.02 -8.282,4.747 -4.04,-3.737 -8.888,-6.464 0.707,-5.151 0.808,-10.302 -5.959,-2.828 -12.423,-4.242 -2.626,4.343 -4.646,8.989 -4.949,-0.707 -9.898,0 -2.02,-4.646 -4.646,-8.989 -6.464,1.414 -12.423,4.242 0.101,5.151 0.808,10.302 -4.848,2.727 -8.888,6.464 -3.939,-2.727 -8.282,-4.747 -4.848,4.949 -8.383,10.908 2.626,4.242 5.656,8.181 z m 0,3.333 v 3.939 c 0,27.876 82.113,27.876 82.214,0 v -3.939 l -13.534,1.212 -0.505,6.969 q -0.202,1.01 -1.414,1.313 l -16.362,1.111 q -1.212,0 -1.616,-1.111 L 70.7,86.557 H 57.368 l -1.01,6.565 q -0.404,1.111 -1.616,1.111 L 38.38,93.122 Q 37.168,92.819 36.966,91.809 L 36.461,84.84 Z"
     id="path646"
     style="stroke-width:0.101;stroke:#241c1c" />
  <path
     d="m 61.105,72.922 c 0,3.434 5.858,3.434 5.858,0 v -8.686 c 0,-3.434 -5.858,-3.434 -5.858,0 z"
     id="path648"
     style="fill:#ffffff;stroke-width:0.101;stroke:#241c1c" />
  <circle
     cx="85.546997"
     cy="65.447998"
     r="9.0900002"
     id="circle650"
     style="fill:#ffffff;stroke-width:0.101;stroke:#241c1c" />
  <circle
     cx="42.521"
     cy="65.447998"
     r="9.0900002"
     id="circle652"
     style="fill:#ffffff;stroke-width:0.101;stroke:#241c1c" />
  <circle
     cx="43.328999"
     cy="66.054001"
     r="6.0599999"
     id="circle656"
     style="fill:#414042;stroke-width:0.101;stroke:#241c1c" />
  <circle
     cx="84.738998"
     cy="66.054001"
     r="6.0599999"
     id="circle658"
     style="fill:#414042;stroke-width:0.101;stroke:#241c1c" />
  <g
     aria-label="2"
     transform="scale(1.1521485,0.86794369)"
     id="text1364"
     style="font-size:27.0778px;fill:#ff0000;fill-opacity:0;stroke:#ff0000;stroke-width:2.25649">
    <path
       d="M 20.22146,30.012934 H 7.4407385 v -1.97668 L 12.504287,22.91855 q 1.462202,-1.462201 2.46408,-2.599469 1.001879,-1.137268 1.516357,-2.22038 0.514478,-1.110189 0.514478,-2.409924 0,-1.59759 -0.947723,-2.409924 -0.947723,-0.839412 -2.46408,-0.839412 -1.408045,0 -2.491157,0.4874 -1.056035,0.487401 -2.1662244,1.35389 l -1.2726567,-1.59759 q 1.1372677,-0.947723 2.5994691,-1.59759 1.489279,-0.676945 3.330569,-0.676945 2.70778,0 4.278293,1.380968 1.570512,1.35389 1.570512,3.763814 0,1.516357 -0.622789,2.843169 -0.62279,1.326812 -1.732979,2.626547 -1.11019,1.272657 -2.599469,2.734858 l -4.034593,3.980436 v 0.108312 h 9.775086 z"
       id="path1479" />
  </g>
</svg>
