<?xml version="1.0" encoding="UTF-8" standalone="no"?>
<svg
   width="128"
   height="128"
   version="1.1"
   id="svg984"
   sodipodi:docname="eco_dome_1.svg"
   inkscape:version="1.2.2 (b0a8486541, 2022-12-01)"
   xmlns:inkscape="http://www.inkscape.org/namespaces/inkscape"
   xmlns:sodipodi="http://sodipodi.sourceforge.net/DTD/sodipodi-0.dtd"
   xmlns="http://www.w3.org/2000/svg"
   xmlns:svg="http://www.w3.org/2000/svg">
  <defs
     id="defs988" />
  <sodipodi:namedview
     id="namedview986"
     pagecolor="#ffffff"
     bordercolor="#000000"
     borderopacity="0.25"
     inkscape:showpageshadow="2"
     inkscape:pageopacity="0.0"
     inkscape:pagecheckerboard="0"
     inkscape:deskcolor="#d1d1d1"
     showgrid="false"
     inkscape:zoom="2.49"
     inkscape:cx="63.855422"
     inkscape:cy="94.578313"
     inkscape:window-width="1854"
     inkscape:window-height="1011"
     inkscape:window-x="66"
     inkscape:window-y="32"
     inkscape:window-maximized="1"
     inkscape:current-layer="svg984" />
  <rect
     width="124"
     height="124"
     x="2"
     y="2"
     fill="#363d52"
     stroke="#212532"
     stroke-width="4"
     rx="14"
     id="rect964"
     style="stroke:#008000" />
  <path
     d="m 22.927,80.295 v 3.333 q 41.107,35.754 82.214,0 v -3.333 z"
     id="path966"
     style="fill:#ffffff;stroke-width:0.101;stroke:#008000" />
  <path
     fill="#478cbf"
     d="m 22.927,80.295 15.352,1.414 q 1.212,0.101 1.515,1.414 l 0.404,6.767 13.332,1.01 0.808,-6.161 q 0.202,-1.111 1.515,-1.515 h 16.362 q 1.313,0.404 1.515,1.515 l 0.808,6.161 13.332,-1.01 0.404,-6.767 q 0.303,-1.313 1.515,-1.414 l 15.352,-1.414 V 55.449 q 3.03,-3.939 5.656,-8.181 -3.535,-5.959 -8.383,-10.908 -4.343,2.02 -8.282,4.747 -4.04,-3.737 -8.888,-6.464 0.707,-5.151 0.808,-10.302 -5.959,-2.828 -12.423,-4.242 -2.626,4.343 -4.646,8.989 -4.949,-0.707 -9.898,0 -2.02,-4.646 -4.646,-8.989 -6.464,1.414 -12.423,4.242 0.101,5.151 0.808,10.302 -4.848,2.727 -8.888,6.464 -3.939,-2.727 -8.282,-4.747 -4.848,4.949 -8.383,10.908 2.626,4.242 5.656,8.181 z m 0,3.333 v 3.939 c 0,27.876 82.113,27.876 82.214,0 v -3.939 l -13.534,1.212 -0.505,6.969 q -0.202,1.01 -1.414,1.313 l -16.362,1.111 q -1.212,0 -1.616,-1.111 L 70.7,86.557 H 57.368 l -1.01,6.565 q -0.404,1.111 -1.616,1.111 L 38.38,93.122 Q 37.168,92.819 36.966,91.809 L 36.461,84.84 Z"
     id="path968"
     style="stroke-width:0.101;stroke:#008000" />
  <path
     d="m 61.105,72.922 c 0,3.434 5.858,3.434 5.858,0 v -8.686 c 0,-3.434 -5.858,-3.434 -5.858,0 z"
     id="path970"
     style="fill:#ffffff;stroke-width:0.101;stroke:#008000" />
  <circle
     cx="85.546997"
     cy="65.447998"
     r="9.0900002"
     id="circle972"
     style="fill:#ffffff;stroke-width:0.101;stroke:#008000" />
  <circle
     cx="42.521"
     cy="65.447998"
     r="9.0900002"
     id="circle974"
     style="fill:#ffffff;stroke-width:0.101;stroke:#008000" />
  <circle
     cx="43.328999"
     cy="66.054001"
     r="6.0599999"
     id="circle978"
     style="fill:#414042;stroke-width:0.101;stroke:#008000" />
  <circle
     cx="84.738998"
     cy="66.054001"
     r="6.0599999"
     id="circle980"
     style="fill:#414042;stroke-width:0.101;stroke:#008000" />
  <g
     aria-label="1
"
     transform="matrix(3.9518275,0,0,2.5418811,-51.138028,-24.99683)"
     id="text276"
     style="white-space:pre;inline-size:31.279;display:inline;fill:#ff0000;fill-opacity:0;stroke:#ff0000">
    <path
       d="m 18.633047,21.917633 h -1.032 v -5.988 q 0,-0.516 0.012,-0.828 0.012,-0.312 0.036,-0.648 -0.192,0.192 -0.348,0.324 -0.156,0.132 -0.396,0.336 l -0.912,0.744 -0.552,-0.708 2.316,-1.8 h 0.876 z"
       id="path478" />
  </g>
</svg>
