<?xml version="1.0" encoding="UTF-8" standalone="no"?>
<svg
   width="128"
   height="128"
   version="1.1"
   id="svg984"
   sodipodi:docname="eco_dome_3.svg"
   inkscape:version="1.2.2 (b0a8486541, 2022-12-01)"
   xmlns:inkscape="http://www.inkscape.org/namespaces/inkscape"
   xmlns:sodipodi="http://sodipodi.sourceforge.net/DTD/sodipodi-0.dtd"
   xmlns="http://www.w3.org/2000/svg"
   xmlns:svg="http://www.w3.org/2000/svg">
  <defs
     id="defs988" />
  <sodipodi:namedview
     id="namedview986"
     pagecolor="#ffffff"
     bordercolor="#000000"
     borderopacity="0.25"
     inkscape:showpageshadow="2"
     inkscape:pageopacity="0.0"
     inkscape:pagecheckerboard="0"
     inkscape:deskcolor="#d1d1d1"
     showgrid="false"
     inkscape:zoom="2.49"
     inkscape:cx="63.855422"
     inkscape:cy="95.381526"
     inkscape:window-width="1854"
     inkscape:window-height="1011"
     inkscape:window-x="66"
     inkscape:window-y="32"
     inkscape:window-maximized="1"
     inkscape:current-layer="svg984" />
  <rect
     width="124"
     height="124"
     x="2"
     y="2"
     fill="#363d52"
     stroke="#212532"
     stroke-width="4"
     rx="14"
     id="rect964"
     style="stroke:#008000" />
  <path
     d="m 22.927,80.295 v 3.333 q 41.107,35.754 82.214,0 v -3.333 z"
     id="path966"
     style="fill:#ffffff;stroke-width:0.101;stroke:#008000" />
  <path
     fill="#478cbf"
     d="m 22.927,80.295 15.352,1.414 q 1.212,0.101 1.515,1.414 l 0.404,6.767 13.332,1.01 0.808,-6.161 q 0.202,-1.111 1.515,-1.515 h 16.362 q 1.313,0.404 1.515,1.515 l 0.808,6.161 13.332,-1.01 0.404,-6.767 q 0.303,-1.313 1.515,-1.414 l 15.352,-1.414 V 55.449 q 3.03,-3.939 5.656,-8.181 -3.535,-5.959 -8.383,-10.908 -4.343,2.02 -8.282,4.747 -4.04,-3.737 -8.888,-6.464 0.707,-5.151 0.808,-10.302 -5.959,-2.828 -12.423,-4.242 -2.626,4.343 -4.646,8.989 -4.949,-0.707 -9.898,0 -2.02,-4.646 -4.646,-8.989 -6.464,1.414 -12.423,4.242 0.101,5.151 0.808,10.302 -4.848,2.727 -8.888,6.464 -3.939,-2.727 -8.282,-4.747 -4.848,4.949 -8.383,10.908 2.626,4.242 5.656,8.181 z m 0,3.333 v 3.939 c 0,27.876 82.113,27.876 82.214,0 v -3.939 l -13.534,1.212 -0.505,6.969 q -0.202,1.01 -1.414,1.313 l -16.362,1.111 q -1.212,0 -1.616,-1.111 L 70.7,86.557 H 57.368 l -1.01,6.565 q -0.404,1.111 -1.616,1.111 L 38.38,93.122 Q 37.168,92.819 36.966,91.809 L 36.461,84.84 Z"
     id="path968"
     style="stroke-width:0.101;stroke:#008000" />
  <path
     d="m 61.105,72.922 c 0,3.434 5.858,3.434 5.858,0 v -8.686 c 0,-3.434 -5.858,-3.434 -5.858,0 z"
     id="path970"
     style="fill:#ffffff;stroke-width:0.101;stroke:#008000" />
  <circle
     cx="85.546997"
     cy="65.447998"
     r="9.0900002"
     id="circle972"
     style="fill:#ffffff;stroke-width:0.101;stroke:#008000" />
  <circle
     cx="42.521"
     cy="65.447998"
     r="9.0900002"
     id="circle974"
     style="fill:#ffffff;stroke-width:0.101;stroke:#008000" />
  <circle
     cx="43.328999"
     cy="66.054001"
     r="6.0599999"
     id="circle978"
     style="fill:#414042;stroke-width:0.101;stroke:#008000" />
  <circle
     cx="84.738998"
     cy="66.054001"
     r="6.0599999"
     id="circle980"
     style="fill:#414042;stroke-width:0.101;stroke:#008000" />
  <g
     aria-label="3"
     transform="scale(1.1885464,0.84136385)"
     id="text813"
     style="font-size:36.4842px;fill:#ff0000;fill-opacity:0;stroke:#ff0000;stroke-width:3.04035">
    <path
       d="m 24.812379,16.336196 q 0,2.626862 -1.459368,4.195682 -1.459368,1.532337 -3.940294,2.043116 v 0.145936 q 3.137641,0.364842 4.669978,1.970147 1.532336,1.605305 1.532336,4.195683 0,2.262021 -1.058042,4.049746 -1.058041,1.751242 -3.283578,2.736315 -2.189052,0.985074 -5.655051,0.985074 -2.043115,0 -3.794356,-0.328358 -1.751242,-0.291874 -3.3565467,-1.094526 v -2.991704 q 1.6417887,0.802652 3.5389677,1.276947 1.897178,0.43781 3.64842,0.43781 3.502483,0 5.034819,-1.349915 1.568821,-1.3864 1.568821,-3.794357 0,-2.444442 -1.933663,-3.502483 -1.897178,-1.094526 -5.363177,-1.094526 h -2.51741 v -2.736315 h 2.553894 q 3.21061,0 4.852399,-1.349916 1.678273,-1.349915 1.678273,-3.575451 0,-1.897179 -1.276947,-2.918736 -1.276947,-1.058042 -3.465999,-1.058042 -2.116084,0 -3.611936,0.620231 -1.495852,0.620232 -2.95522,1.568821 L 8.6133941,12.578323 q 1.3863996,-1.094526 3.4295149,-1.897178 2.079599,-0.8026528 4.706462,-0.8026528 4.08623,0 6.056377,1.8242098 2.006631,1.82421 2.006631,4.633494 z"
       id="path841" />
  </g>
</svg>
