<?xml version="1.0" encoding="UTF-8" standalone="no"?>
<svg
   width="128"
   height="128"
   version="1.1"
   id="svg281"
   sodipodi:docname="iron_refinery_3.svg"
   inkscape:version="1.2.2 (b0a8486541, 2022-12-01)"
   xmlns:inkscape="http://www.inkscape.org/namespaces/inkscape"
   xmlns:sodipodi="http://sodipodi.sourceforge.net/DTD/sodipodi-0.dtd"
   xmlns="http://www.w3.org/2000/svg"
   xmlns:svg="http://www.w3.org/2000/svg">
  <defs
     id="defs285" />
  <sodipodi:namedview
     id="namedview283"
     pagecolor="#ffffff"
     bordercolor="#000000"
     borderopacity="0.25"
     inkscape:showpageshadow="2"
     inkscape:pageopacity="0.0"
     inkscape:pagecheckerboard="0"
     inkscape:deskcolor="#d1d1d1"
     showgrid="false"
     inkscape:zoom="6.6579315"
     inkscape:cx="60.9799"
     inkscape:cy="44.383154"
     inkscape:window-width="1854"
     inkscape:window-height="1011"
     inkscape:window-x="66"
     inkscape:window-y="32"
     inkscape:window-maximized="1"
     inkscape:current-layer="svg281" />
  <rect
     width="124"
     height="124"
     x="2"
     y="2"
     fill="#363d52"
     stroke="#212532"
     stroke-width="4"
     rx="14"
     id="rect261"
     style="stroke:#ff6600" />
  <path
     d="m 22.927,80.295 v 3.333 q 41.107,35.754 82.214,0 v -3.333 z"
     id="path263"
     style="fill:#ffffff;stroke-width:0.101;stroke:#ff6600" />
  <path
     fill="#478cbf"
     d="m 22.927,80.295 15.352,1.414 q 1.212,0.101 1.515,1.414 l 0.404,6.767 13.332,1.01 0.808,-6.161 q 0.202,-1.111 1.515,-1.515 h 16.362 q 1.313,0.404 1.515,1.515 l 0.808,6.161 13.332,-1.01 0.404,-6.767 q 0.303,-1.313 1.515,-1.414 l 15.352,-1.414 V 55.449 q 3.03,-3.939 5.656,-8.181 -3.535,-5.959 -8.383,-10.908 -4.343,2.02 -8.282,4.747 -4.04,-3.737 -8.888,-6.464 0.707,-5.151 0.808,-10.302 -5.959,-2.828 -12.423,-4.242 -2.626,4.343 -4.646,8.989 -4.949,-0.707 -9.898,0 -2.02,-4.646 -4.646,-8.989 -6.464,1.414 -12.423,4.242 0.101,5.151 0.808,10.302 -4.848,2.727 -8.888,6.464 -3.939,-2.727 -8.282,-4.747 -4.848,4.949 -8.383,10.908 2.626,4.242 5.656,8.181 z m 0,3.333 v 3.939 c 0,27.876 82.113,27.876 82.214,0 v -3.939 l -13.534,1.212 -0.505,6.969 q -0.202,1.01 -1.414,1.313 l -16.362,1.111 q -1.212,0 -1.616,-1.111 L 70.7,86.557 H 57.368 l -1.01,6.565 q -0.404,1.111 -1.616,1.111 L 38.38,93.122 Q 37.168,92.819 36.966,91.809 L 36.461,84.84 Z"
     id="path265"
     style="stroke-width:0.101;stroke:#ff6600" />
  <path
     d="m 61.105,72.922 c 0,3.434 5.858,3.434 5.858,0 v -8.686 c 0,-3.434 -5.858,-3.434 -5.858,0 z"
     id="path267"
     style="fill:#ffffff;stroke-width:0.101;stroke:#ff6600" />
  <circle
     cx="85.546997"
     cy="65.447998"
     r="9.0900002"
     id="circle269"
     style="fill:#ffffff;stroke-width:0.101;stroke:#ff6600" />
  <circle
     cx="42.521"
     cy="65.447998"
     r="9.0900002"
     id="circle271"
     style="fill:#ffffff;stroke-width:0.101;stroke:#ff6600" />
  <circle
     cx="43.328999"
     cy="66.054001"
     r="6.0599999"
     id="circle275"
     style="fill:#414042;stroke-width:0.101;stroke:#ff6600" />
  <circle
     cx="84.738998"
     cy="66.054001"
     r="6.0599999"
     id="circle277"
     style="fill:#414042;stroke-width:0.101;stroke:#ff6600" />
  <text
     xml:space="preserve"
     style="fill:#ff0000;fill-opacity:0;stroke:#ff0000"
     x="22.720373"
     y="18.23996"
     id="text1841"><tspan
       sodipodi:role="line"
       id="tspan1839"
       x="22.720373"
       y="18.23996" /></text>
  <g
     aria-label="3"
     transform="scale(1.0280655,0.97270064)"
     id="text2076"
     style="font-size:26.2771px;fill:#ff0000;fill-opacity:0;stroke:#ff0000;stroke-width:2.18976">
    <path
       d="m 21.824253,14.518274 q 0,1.891951 -1.051084,3.021867 -1.051084,1.103638 -2.837926,1.471517 v 0.105109 q 2.25983,0.262771 3.363468,1.418963 1.103639,1.156192 1.103639,3.021866 0,1.629181 -0.762036,2.916758 -0.762036,1.261301 -2.364939,1.970783 -1.576626,0.709482 -4.072951,0.709482 -1.471517,0 -2.732818,-0.236494 -1.261301,-0.210217 -2.417493,-0.788313 V 25.97509 q 1.182469,0.578096 2.548878,0.919698 1.36641,0.315325 2.62771,0.315325 2.522602,0 3.62624,-0.972252 1.129915,-0.99853 1.129915,-2.732819 0,-1.760565 -1.392686,-2.522601 -1.366409,-0.788313 -3.862734,-0.788313 h -1.813119 v -1.970783 h 1.839397 q 2.312384,0 3.494854,-0.972253 1.208746,-0.972252 1.208746,-2.575155 0,-1.366409 -0.919698,-2.102168 -0.919699,-0.762036 -2.496325,-0.762036 -1.524071,0 -2.601432,0.446711 -1.077362,0.44671 -2.128446,1.129915 l -1.156192,-1.576626 q 0.99853,-0.788313 2.470047,-1.366409 1.497795,-0.5780965 3.389746,-0.5780965 2.943035,0 4.361999,1.3138545 1.44524,1.313855 1.44524,3.337192 z"
       id="path2108" />
  </g>
</svg>
