<?xml version="1.0" encoding="UTF-8" standalone="no"?>
<svg
   width="128"
   height="128"
   version="1.1"
   id="svg80"
   sodipodi:docname="mech_quarter_3.svg"
   inkscape:version="1.2.2 (b0a8486541, 2022-12-01)"
   xmlns:inkscape="http://www.inkscape.org/namespaces/inkscape"
   xmlns:sodipodi="http://sodipodi.sourceforge.net/DTD/sodipodi-0.dtd"
   xmlns="http://www.w3.org/2000/svg"
   xmlns:svg="http://www.w3.org/2000/svg">
  <defs
     id="defs84" />
  <sodipodi:namedview
     id="namedview82"
     pagecolor="#ffffff"
     bordercolor="#000000"
     borderopacity="0.25"
     inkscape:showpageshadow="2"
     inkscape:pageopacity="0.0"
     inkscape:pagecheckerboard="0"
     inkscape:deskcolor="#d1d1d1"
     showgrid="false"
     inkscape:zoom="6.578125"
     inkscape:cx="48.7981"
     inkscape:cy="59.515439"
     inkscape:window-width="1854"
     inkscape:window-height="1011"
     inkscape:window-x="66"
     inkscape:window-y="32"
     inkscape:window-maximized="1"
     inkscape:current-layer="svg80" />
  <rect
     width="124"
     height="124"
     x="2"
     y="2"
     fill="#363d52"
     stroke="#212532"
     stroke-width="4"
     rx="14"
     id="rect60"
     style="stroke:#ffff00" />
  <path
     d="m 22.927,80.295 v 3.333 q 41.107,35.754 82.214,0 v -3.333 z"
     id="path62"
     style="fill:#ffffff;stroke-width:0.101;stroke:#ffff00" />
  <path
     fill="#478cbf"
     d="m 22.927,80.295 15.352,1.414 q 1.212,0.101 1.515,1.414 l 0.404,6.767 13.332,1.01 0.808,-6.161 q 0.202,-1.111 1.515,-1.515 h 16.362 q 1.313,0.404 1.515,1.515 l 0.808,6.161 13.332,-1.01 0.404,-6.767 q 0.303,-1.313 1.515,-1.414 l 15.352,-1.414 V 55.449 q 3.03,-3.939 5.656,-8.181 -3.535,-5.959 -8.383,-10.908 -4.343,2.02 -8.282,4.747 -4.04,-3.737 -8.888,-6.464 0.707,-5.151 0.808,-10.302 -5.959,-2.828 -12.423,-4.242 -2.626,4.343 -4.646,8.989 -4.949,-0.707 -9.898,0 -2.02,-4.646 -4.646,-8.989 -6.464,1.414 -12.423,4.242 0.101,5.151 0.808,10.302 -4.848,2.727 -8.888,6.464 -3.939,-2.727 -8.282,-4.747 -4.848,4.949 -8.383,10.908 2.626,4.242 5.656,8.181 z m 0,3.333 v 3.939 c 0,27.876 82.113,27.876 82.214,0 v -3.939 l -13.534,1.212 -0.505,6.969 q -0.202,1.01 -1.414,1.313 l -16.362,1.111 q -1.212,0 -1.616,-1.111 L 70.7,86.557 H 57.368 l -1.01,6.565 q -0.404,1.111 -1.616,1.111 L 38.38,93.122 Q 37.168,92.819 36.966,91.809 L 36.461,84.84 Z"
     id="path64"
     style="stroke-width:0.101;stroke:#ffff00" />
  <path
     d="m 61.105,72.922 c 0,3.434 5.858,3.434 5.858,0 v -8.686 c 0,-3.434 -5.858,-3.434 -5.858,0 z"
     id="path66"
     style="fill:#ffffff;stroke-width:0.101;stroke:#ffff00" />
  <circle
     cx="85.546997"
     cy="65.447998"
     r="9.0900002"
     id="circle68"
     style="fill:#ffffff;stroke-width:0.101;stroke:#ffff00" />
  <circle
     cx="42.521"
     cy="65.447998"
     r="9.0900002"
     id="circle70"
     style="fill:#ffffff;stroke-width:0.101;stroke:#ffff00" />
  <circle
     cx="43.328999"
     cy="66.054001"
     r="6.0599999"
     id="circle74"
     style="fill:#414042;stroke-width:0.101;stroke:#ffff00" />
  <circle
     cx="84.738998"
     cy="66.054001"
     r="6.0599999"
     id="circle76"
     style="fill:#414042;stroke-width:0.101;stroke:#ffff00" />
  <g
     aria-label="3"
     transform="scale(1.0209448,0.97948488)"
     id="text2537"
     style="font-size:25.1831px;fill:#ff0000;fill-opacity:0;stroke:#ff0000;stroke-width:2.09859">
    <path
       d="m 22.433365,14.48964 q 0,1.813183 -1.007324,2.896056 -1.007324,1.05769 -2.719775,1.410254 v 0.100732 q 2.165747,0.251831 3.223437,1.359888 1.05769,1.108056 1.05769,2.896056 0,1.561352 -0.73031,2.795324 -0.730309,1.208789 -2.266479,1.888733 -1.510986,0.679943 -3.90338,0.679943 -1.410254,0 -2.619042,-0.226648 -1.208789,-0.201464 -2.316846,-0.755493 v -2.065014 q 1.13324,0.554028 2.442761,0.881409 1.309521,0.302197 2.51831,0.302197 2.417578,0 3.475268,-0.931775 1.082873,-0.956958 1.082873,-2.619042 0,-1.687268 -1.334704,-2.417578 -1.309521,-0.755493 -3.701916,-0.755493 h -1.737634 v -1.888732 h 1.762817 q 2.216113,0 3.349353,-0.931775 1.158422,-0.931775 1.158422,-2.467944 0,-1.309521 -0.881408,-2.014648 -0.881409,-0.73031 -2.392395,-0.73031 -1.46062,0 -2.493127,0.428113 -1.032507,0.428113 -2.039831,1.082873 L 11.252069,11.89578 q 0.956958,-0.755493 2.367211,-1.309521 1.435437,-0.554028 3.24862,-0.554028 2.820507,0 4.180395,1.259155 1.38507,1.259155 1.38507,3.198254 z"
       id="path2565" />
  </g>
</svg>
