<?xml version="1.0" encoding="UTF-8" standalone="no"?>
<svg
   width="128"
   height="128"
   version="1.1"
   id="svg1125"
   sodipodi:docname="power_plant_3.svg"
   inkscape:version="1.2.2 (b0a8486541, 2022-12-01)"
   xmlns:inkscape="http://www.inkscape.org/namespaces/inkscape"
   xmlns:sodipodi="http://sodipodi.sourceforge.net/DTD/sodipodi-0.dtd"
   xmlns="http://www.w3.org/2000/svg"
   xmlns:svg="http://www.w3.org/2000/svg">
  <defs
     id="defs1129" />
  <sodipodi:namedview
     id="namedview1127"
     pagecolor="#ffffff"
     bordercolor="#000000"
     borderopacity="0.25"
     inkscape:showpageshadow="2"
     inkscape:pageopacity="0.0"
     inkscape:pagecheckerboard="0"
     inkscape:deskcolor="#d1d1d1"
     showgrid="false"
     inkscape:zoom="5.7288226"
     inkscape:cx="64.062029"
     inkscape:cy="59.959965"
     inkscape:window-width="1854"
     inkscape:window-height="1011"
     inkscape:window-x="66"
     inkscape:window-y="32"
     inkscape:window-maximized="1"
     inkscape:current-layer="svg1125" />
  <rect
     width="124"
     height="124"
     x="2"
     y="2"
     fill="#363d52"
     stroke="#212532"
     stroke-width="4"
     rx="14"
     id="rect1105"
     style="stroke:#0000ff" />
  <path
     d="m 22.927,80.295 v 3.333 q 41.107,35.754 82.214,0 v -3.333 z"
     id="path1107"
     style="fill:#ffffff;stroke-width:0.101;stroke:#0000ff" />
  <path
     fill="#478cbf"
     d="m 22.927,80.295 15.352,1.414 q 1.212,0.101 1.515,1.414 l 0.404,6.767 13.332,1.01 0.808,-6.161 q 0.202,-1.111 1.515,-1.515 h 16.362 q 1.313,0.404 1.515,1.515 l 0.808,6.161 13.332,-1.01 0.404,-6.767 q 0.303,-1.313 1.515,-1.414 l 15.352,-1.414 V 55.449 q 3.03,-3.939 5.656,-8.181 -3.535,-5.959 -8.383,-10.908 -4.343,2.02 -8.282,4.747 -4.04,-3.737 -8.888,-6.464 0.707,-5.151 0.808,-10.302 -5.959,-2.828 -12.423,-4.242 -2.626,4.343 -4.646,8.989 -4.949,-0.707 -9.898,0 -2.02,-4.646 -4.646,-8.989 -6.464,1.414 -12.423,4.242 0.101,5.151 0.808,10.302 -4.848,2.727 -8.888,6.464 -3.939,-2.727 -8.282,-4.747 -4.848,4.949 -8.383,10.908 2.626,4.242 5.656,8.181 z m 0,3.333 v 3.939 c 0,27.876 82.113,27.876 82.214,0 v -3.939 l -13.534,1.212 -0.505,6.969 q -0.202,1.01 -1.414,1.313 l -16.362,1.111 q -1.212,0 -1.616,-1.111 L 70.7,86.557 H 57.368 l -1.01,6.565 q -0.404,1.111 -1.616,1.111 L 38.38,93.122 Q 37.168,92.819 36.966,91.809 L 36.461,84.84 Z"
     id="path1109"
     style="stroke-width:0.101;stroke:#0000ff" />
  <path
     d="m 61.105,72.922 c 0,3.434 5.858,3.434 5.858,0 v -8.686 c 0,-3.434 -5.858,-3.434 -5.858,0 z"
     id="path1111"
     style="fill:#ffffff;stroke-width:0.101;stroke:#0000ff" />
  <circle
     cx="85.546997"
     cy="65.447998"
     r="9.0900002"
     id="circle1113"
     style="fill:#ffffff;stroke-width:0.101;stroke:#0000ff" />
  <circle
     cx="42.521"
     cy="65.447998"
     r="9.0900002"
     id="circle1115"
     style="fill:#ffffff;stroke-width:0.101;stroke:#0000ff" />
  <circle
     cx="43.328999"
     cy="66.054001"
     r="6.0599999"
     id="circle1119"
     style="fill:#414042;stroke-width:0.101;stroke:#0000ff" />
  <circle
     cx="84.738998"
     cy="66.054001"
     r="6.0599999"
     id="circle1121"
     style="fill:#414042;stroke-width:0.101;stroke:#0000ff" />
  <g
     aria-label="3"
     transform="scale(0.98528595,1.0149338)"
     id="text1222"
     style="font-size:27.027px;fill:#ff0000;fill-opacity:0;stroke:#ff0000;stroke-width:2.25225">
    <path
       d="m 23.69362,13.895396 q 0,1.945944 -1.08108,3.108105 -1.08108,1.135134 -2.918916,1.513512 v 0.108108 q 2.324322,0.27027 3.459456,1.459458 1.135134,1.189188 1.135134,3.108105 0,1.675674 -0.783783,2.999997 -0.783783,1.297296 -2.43243,2.027025 -1.62162,0.729729 -4.189185,0.729729 -1.513512,0 -2.810808,-0.243243 -1.297296,-0.216216 -2.486485,-0.81081 v -2.216214 q 1.216216,0.594594 2.62162,0.945945 1.405404,0.324324 2.7027,0.324324 2.594592,0 3.729726,-0.999999 1.162161,-1.027026 1.162161,-2.810808 0,-1.810809 -1.432431,-2.594592 -1.405404,-0.81081 -3.972969,-0.81081 h -1.864863 v -2.027025 h 1.89189 q 2.378376,0 3.594591,-0.999999 1.243242,-0.999999 1.243242,-2.648646 0,-1.405404 -0.945945,-2.16216 -0.945945,-0.783783 -2.567565,-0.783783 -1.567566,0 -2.675673,0.459459 -1.108107,0.459459 -2.189187,1.162161 l -1.189189,-1.62162 q 1.027027,-0.81081 2.540539,-1.4054044 1.540539,-0.594594 3.486483,-0.594594 3.027024,0 4.486482,1.3513504 1.486485,1.35135 1.486485,3.432429 z"
       id="path1250" />
  </g>
</svg>
