<?xml version="1.0" encoding="UTF-8" standalone="no"?>
<svg
   width="128"
   height="128"
   version="1.1"
   id="svg662"
   sodipodi:docname="residence_building_3.svg"
   inkscape:version="1.2.2 (b0a8486541, 2022-12-01)"
   xmlns:inkscape="http://www.inkscape.org/namespaces/inkscape"
   xmlns:sodipodi="http://sodipodi.sourceforge.net/DTD/sodipodi-0.dtd"
   xmlns="http://www.w3.org/2000/svg"
   xmlns:svg="http://www.w3.org/2000/svg">
  <defs
     id="defs666" />
  <sodipodi:namedview
     id="namedview664"
     pagecolor="#ffffff"
     bordercolor="#000000"
     borderopacity="0.25"
     inkscape:showpageshadow="2"
     inkscape:pageopacity="0.0"
     inkscape:pagecheckerboard="0"
     inkscape:deskcolor="#d1d1d1"
     showgrid="false"
     inkscape:zoom="5.5036571"
     inkscape:cx="62.503894"
     inkscape:cy="64.048322"
     inkscape:window-width="1854"
     inkscape:window-height="1011"
     inkscape:window-x="66"
     inkscape:window-y="32"
     inkscape:window-maximized="1"
     inkscape:current-layer="svg662" />
  <rect
     width="124"
     height="124"
     x="2"
     y="2"
     fill="#363d52"
     stroke="#212532"
     stroke-width="4"
     rx="14"
     id="rect642"
     style="stroke:#241c1c" />
  <path
     d="m 22.927,80.295 v 3.333 q 41.107,35.754 82.214,0 v -3.333 z"
     id="path644"
     style="fill:#ffffff;stroke-width:0.101;stroke:#241c1c" />
  <path
     fill="#478cbf"
     d="m 22.927,80.295 15.352,1.414 q 1.212,0.101 1.515,1.414 l 0.404,6.767 13.332,1.01 0.808,-6.161 q 0.202,-1.111 1.515,-1.515 h 16.362 q 1.313,0.404 1.515,1.515 l 0.808,6.161 13.332,-1.01 0.404,-6.767 q 0.303,-1.313 1.515,-1.414 l 15.352,-1.414 V 55.449 q 3.03,-3.939 5.656,-8.181 -3.535,-5.959 -8.383,-10.908 -4.343,2.02 -8.282,4.747 -4.04,-3.737 -8.888,-6.464 0.707,-5.151 0.808,-10.302 -5.959,-2.828 -12.423,-4.242 -2.626,4.343 -4.646,8.989 -4.949,-0.707 -9.898,0 -2.02,-4.646 -4.646,-8.989 -6.464,1.414 -12.423,4.242 0.101,5.151 0.808,10.302 -4.848,2.727 -8.888,6.464 -3.939,-2.727 -8.282,-4.747 -4.848,4.949 -8.383,10.908 2.626,4.242 5.656,8.181 z m 0,3.333 v 3.939 c 0,27.876 82.113,27.876 82.214,0 v -3.939 l -13.534,1.212 -0.505,6.969 q -0.202,1.01 -1.414,1.313 l -16.362,1.111 q -1.212,0 -1.616,-1.111 L 70.7,86.557 H 57.368 l -1.01,6.565 q -0.404,1.111 -1.616,1.111 L 38.38,93.122 Q 37.168,92.819 36.966,91.809 L 36.461,84.84 Z"
     id="path646"
     style="stroke-width:0.101;stroke:#241c1c" />
  <path
     d="m 61.105,72.922 c 0,3.434 5.858,3.434 5.858,0 v -8.686 c 0,-3.434 -5.858,-3.434 -5.858,0 z"
     id="path648"
     style="fill:#ffffff;stroke-width:0.101;stroke:#241c1c" />
  <circle
     cx="85.546997"
     cy="65.447998"
     r="9.0900002"
     id="circle650"
     style="fill:#ffffff;stroke-width:0.101;stroke:#241c1c" />
  <circle
     cx="42.521"
     cy="65.447998"
     r="9.0900002"
     id="circle652"
     style="fill:#ffffff;stroke-width:0.101;stroke:#241c1c" />
  <circle
     cx="43.328999"
     cy="66.054001"
     r="6.0599999"
     id="circle656"
     style="fill:#414042;stroke-width:0.101;stroke:#241c1c" />
  <circle
     cx="84.738998"
     cy="66.054001"
     r="6.0599999"
     id="circle658"
     style="fill:#414042;stroke-width:0.101;stroke:#241c1c" />
  <text
     xml:space="preserve"
     style="fill:#ff0000;fill-opacity:0;stroke:#ff0000"
     x="19.010818"
     y="16.513"
     id="text1526"><tspan
       sodipodi:role="line"
       id="tspan1524"></tspan></text>
  <text
     xml:space="preserve"
     style="fill:#ff0000;fill-opacity:0;stroke:#ff0000"
     x="13.549174"
     y="20.621737"
     id="text1530"><tspan
       sodipodi:role="line"
       id="tspan1528"
       x="13.549174"
       y="20.621737" /></text>
  <g
     aria-label="3"
     transform="scale(1.0726031,0.9323113)"
     id="text1550"
     style="font-size:27.0594px;fill:#ff0000;fill-opacity:0;stroke:#ff0000;stroke-width:2.25495">
    <path
       d="m 21.355394,15.181988 q 0,1.948277 -1.082376,3.111831 -1.082377,1.136495 -2.922416,1.515327 v 0.108237 q 2.327109,0.270594 3.463604,1.461208 1.136494,1.190614 1.136494,3.111831 0,1.677683 -0.784722,3.003594 -0.784723,1.298851 -2.435346,2.029455 -1.623564,0.730603 -4.194207,0.730603 -1.515327,0 -2.814178,-0.243534 -1.298851,-0.216475 -2.4894649,-0.811782 v -2.218871 q 1.2176729,0.595307 2.6247619,0.947079 1.407089,0.324713 2.70594,0.324713 2.597702,0 3.734197,-1.001198 1.163554,-1.028257 1.163554,-2.814178 0,-1.812979 -1.434148,-2.597702 -1.407089,-0.811782 -3.977732,-0.811782 h -1.867098 v -2.029455 h 1.894158 q 2.381227,0 3.5989,-1.001198 1.244732,-1.001198 1.244732,-2.651821 0,-1.407089 -0.947079,-2.164752 -0.947079,-0.784723 -2.570643,-0.784723 -1.569445,0 -2.67888,0.46001 -1.109436,0.46001 -2.191812,1.163554 L 9.3410197,12.39487 q 1.0282573,-0.811782 2.5435833,-1.407089 1.542386,-0.595307 3.490663,-0.595307 3.030653,0 4.491861,1.35297 1.488267,1.352971 1.488267,3.436544 z"
       id="path2581" />
  </g>
</svg>
